<svg width="271" height="60" viewBox="0 0 271 60" fill="none" xmlns="http://www.w3.org/2000/svg">
<rect width="271" height="60" rx="30" fill="black"/>
<g clip-path="url(#clip0_1_255)">
<mask id="path-3-outside-1_1_255" maskUnits="userSpaceOnUse" x="18.2511" y="14.0701" width="33.9411" height="33.9411" fill="black">
<rect fill="white" x="18.2511" y="14.0701" width="33.9411" height="33.9411"/>
<path fill-rule="evenodd" clip-rule="evenodd" d="M34.8375 21.0838C35.123 20.7983 35.5859 20.7983 35.8713 21.0838L36.6516 21.864C36.7943 22.0068 36.7943 22.2382 36.6516 22.3809L35.6129 23.4197C35.4701 23.5624 35.2387 23.5624 35.096 23.4197L34.0573 22.3809C33.9145 22.2382 33.9145 22.0068 34.0573 21.864L34.8375 21.0838ZM38.1511 23.8805C38.2939 23.7378 38.5253 23.7378 38.6681 23.8805L39.7068 24.9192C39.8495 25.062 39.8495 25.2934 39.7068 25.4361L38.6681 26.4749C38.5253 26.6176 38.2939 26.6176 38.1511 26.4749L37.1124 25.4361C36.9697 25.2934 36.9697 25.062 37.1124 24.9192L38.1511 23.8805ZM36.3883 27.8037C36.6737 28.0892 36.6737 28.552 36.3883 28.8375L34.8862 30.3396C34.6007 30.6251 34.1378 30.6251 33.8523 30.3396L32.8185 29.3058C32.533 29.0203 32.0702 29.0203 31.7847 29.3058L31.5643 29.5261C31.2788 29.8116 31.2788 30.2745 31.5643 30.56L37.7673 36.763C38.0528 37.0484 38.0528 37.5113 37.7673 37.7968L37.477 38.0871C37.2964 38.2677 37.0346 38.341 36.7864 38.2803L35.7167 38.0187C35.4686 37.958 35.2068 38.0312 35.0261 38.2118L34.579 38.6589C34.2936 38.9444 33.8307 38.9444 33.5452 38.6589L27.0838 32.1975C26.7983 31.912 26.7983 31.4491 27.0838 31.1636L27.5308 30.7166C27.7115 30.5359 27.7847 30.2741 27.724 30.026L27.4624 28.9563C27.4017 28.7081 27.475 28.4463 27.6556 28.2657L28.4628 27.4585L29.717 26.2043L29.717 26.2043L31.736 24.1853C32.0215 23.8998 32.4844 23.8998 32.7698 24.1853L36.3883 27.8037ZM40.8017 26.531C40.9444 26.3883 41.1758 26.3883 41.3186 26.531L42.3573 27.5697C42.5 27.7125 42.5 27.9439 42.3573 28.0867L37.3588 33.0852C37.216 33.2279 36.9846 33.2279 36.8419 33.0852L35.8031 32.0465C35.6604 31.9037 35.6604 31.6723 35.8031 31.5295L40.8017 26.531ZM43.9269 29.1393C43.7841 28.9966 43.5527 28.9966 43.41 29.1393L38.4114 34.1378C38.2687 34.2806 38.2687 34.512 38.4114 34.6547L39.4502 35.6934C39.5929 35.8362 39.8243 35.8362 39.9671 35.6934L44.7071 30.9534C44.9926 30.6679 44.9926 30.205 44.7071 29.9196L43.9269 29.1393ZM30.6523 22.0677L28.843 20.2585C28.7003 20.1157 28.4689 20.1157 28.3261 20.2585L26.2585 22.3261C26.1157 22.4689 26.1157 22.7003 26.2585 22.843L28.0677 24.6522C28.2104 24.795 28.4418 24.795 28.5846 24.6522L30.6523 22.5846C30.795 22.4418 30.795 22.2104 30.6523 22.0677ZM43.843 35.2585L44.7698 36.1852C44.8384 36.2538 44.8769 36.3468 44.8769 36.4437L44.8769 38.5114C44.8769 38.7132 44.7132 38.8769 44.5114 38.8769L42.4437 38.8769C42.3468 38.8769 42.2538 38.8384 42.1852 38.7698L41.2585 37.843C41.1157 37.7003 41.1157 37.4689 41.2585 37.3261L43.3261 35.2585C43.4689 35.1157 43.7003 35.1157 43.843 35.2585Z"/>
</mask>
<path d="M36.7864 38.2803L36.3113 40.223L36.3113 40.223L36.7864 38.2803ZM35.7167 38.0187L35.2416 39.9614L35.2416 39.9614L35.7167 38.0187ZM35.0261 38.2118L36.4403 39.6261L36.4404 39.6261L35.0261 38.2118ZM34.579 38.6589L33.1648 37.2447L33.1648 37.2447L34.579 38.6589ZM27.0838 31.1636L28.498 32.5779L27.0838 31.1636ZM27.5308 30.7166L28.9451 32.1308L28.9451 32.1308L27.5308 30.7166ZM27.724 30.026L29.6668 29.5508L29.6668 29.5508L27.724 30.026ZM27.4624 28.9563L25.5197 29.4314L25.5197 29.4314L27.4624 28.9563ZM28.4628 27.4585L27.0486 26.0442L27.0486 26.0442L28.4628 27.4585ZM29.717 26.2043L31.1312 27.6185L31.7936 26.9561L31.7088 26.0232L29.717 26.2043ZM29.717 26.2043L28.3028 24.7901L27.6404 25.4524L27.7252 26.3853L29.717 26.2043ZM40.8017 26.531L39.3875 25.1168L40.8017 26.531ZM35.8031 31.5295L37.2174 32.9437L35.8031 31.5295ZM44.8769 36.4437H46.8769L46.8769 36.4437L44.8769 36.4437ZM44.8769 38.5114L46.8769 38.5114V38.5114H44.8769ZM44.5114 38.8769L44.5114 36.8769L44.5114 36.8769L44.5114 38.8769ZM42.4437 38.8769L42.4437 40.8769H42.4437L42.4437 38.8769ZM37.2856 19.6696C36.219 18.603 34.4898 18.603 33.4233 19.6696L36.2517 22.498C35.7562 22.9935 34.9527 22.9935 34.4571 22.498L37.2856 19.6696ZM38.0658 20.4498L37.2856 19.6696L34.4571 22.498L35.2374 23.2782L38.0658 20.4498ZM38.0658 23.7952C38.9896 22.8714 38.9896 21.3736 38.0658 20.4498L35.2374 23.2782C34.5991 22.6399 34.5991 21.605 35.2374 20.9667L38.0658 23.7952ZM37.0271 24.8339L38.0658 23.7952L35.2374 20.9667L34.1987 22.0054L37.0271 24.8339ZM33.6818 24.8339C34.6055 25.7577 36.1033 25.7577 37.0271 24.8339L34.1987 22.0054C34.837 21.3671 35.8719 21.3671 36.5102 22.0054L33.6818 24.8339ZM32.643 23.7952L33.6818 24.8339L36.5102 22.0054L35.4715 20.9667L32.643 23.7952ZM32.643 20.4498C31.7192 21.3736 31.7192 22.8714 32.643 23.7952L35.4715 20.9667C36.1098 21.605 36.1098 22.6399 35.4715 23.2782L32.643 20.4498ZM33.4233 19.6696L32.643 20.4498L35.4715 23.2782L36.2517 22.498L33.4233 19.6696ZM40.0823 22.4663C39.1585 21.5425 37.6607 21.5425 36.7369 22.4663L39.5654 25.2947C38.9271 25.933 37.8922 25.933 37.2538 25.2947L40.0823 22.4663ZM41.121 23.505L40.0823 22.4663L37.2538 25.2947L38.2926 26.3334L41.121 23.505ZM41.121 26.8503C42.0448 25.9266 42.0448 24.4288 41.121 23.505L38.2926 26.3334C37.6543 25.6951 37.6543 24.6602 38.2926 24.0219L41.121 26.8503ZM40.0823 27.8891L41.121 26.8503L38.2926 24.0219L37.2538 25.0606L40.0823 27.8891ZM36.7369 27.8891C37.6607 28.8129 39.1585 28.8129 40.0823 27.8891L37.2538 25.0606C37.8922 24.4223 38.9271 24.4223 39.5654 25.0606L36.7369 27.8891ZM35.6982 26.8503L36.7369 27.8891L39.5654 25.0606L38.5266 24.0219L35.6982 26.8503ZM35.6982 23.505C34.7744 24.4288 34.7744 25.9266 35.6982 26.8503L38.5266 24.0219C39.1649 24.6602 39.1649 25.6951 38.5266 26.3334L35.6982 23.505ZM36.7369 22.4663L35.6982 23.505L38.5266 26.3334L39.5654 25.2947L36.7369 22.4663ZM37.8025 30.2517C38.869 29.1852 38.869 27.456 37.8025 26.3895L34.974 29.2179C34.4785 28.7223 34.4785 27.9189 34.974 27.4233L37.8025 30.2517ZM36.3004 31.7538L37.8025 30.2517L34.974 27.4233L33.472 28.9254L36.3004 31.7538ZM32.4381 31.7538C33.5047 32.8204 35.2339 32.8204 36.3004 31.7538L33.472 28.9254C33.9675 28.4298 34.771 28.4298 35.2665 28.9254L32.4381 31.7538ZM31.4043 30.72L32.4381 31.7538L35.2665 28.9254L34.2327 27.8916L31.4043 30.72ZM33.1989 30.72C32.7033 31.2156 31.8999 31.2156 31.4043 30.72L34.2327 27.8916C33.1662 26.825 31.437 26.825 30.3705 27.8916L33.1989 30.72ZM32.9785 30.9403L33.1989 30.72L30.3705 27.8916L30.1501 28.1119L32.9785 30.9403ZM32.9785 29.1458C33.4741 29.6413 33.4741 30.4448 32.9785 30.9403L30.1501 28.1119C29.0836 29.1785 29.0836 30.9076 30.1501 31.9742L32.9785 29.1458ZM39.1815 35.3487L32.9785 29.1458L30.1501 31.9742L36.3531 38.1772L39.1815 35.3487ZM39.1815 39.211C40.2481 38.1445 40.2481 36.4153 39.1815 35.3487L36.3531 38.1772C35.8575 37.6816 35.8575 36.8781 36.3531 36.3826L39.1815 39.211ZM38.8912 39.5013L39.1815 39.211L36.3531 36.3826L36.0628 36.6729L38.8912 39.5013ZM36.3113 40.223C37.2383 40.4497 38.2164 40.1761 38.8912 39.5013L36.0628 36.6729C36.3763 36.3593 36.8308 36.2322 37.2616 36.3375L36.3113 40.223ZM35.2416 39.9614L36.3113 40.223L37.2616 36.3375L36.1919 36.0759L35.2416 39.9614ZM36.4404 39.6261C36.1268 39.9396 35.6723 40.0667 35.2416 39.9614L36.1919 36.0759C35.2649 35.8492 34.2867 36.1228 33.6119 36.7976L36.4404 39.6261ZM35.9933 40.0731L36.4403 39.6261L33.6119 36.7976L33.1648 37.2447L35.9933 40.0731ZM32.131 40.0731C33.1975 41.1397 34.9267 41.1397 35.9933 40.0731L33.1648 37.2447C33.6604 36.7492 34.4639 36.7492 34.9594 37.2447L32.131 40.0731ZM25.6695 33.6117L32.131 40.0731L34.9594 37.2447L28.498 30.7833L25.6695 33.6117ZM25.6695 29.7494C24.603 30.816 24.603 32.5452 25.6695 33.6117L28.498 30.7833C28.9935 31.2788 28.9935 32.0823 28.498 32.5779L25.6695 29.7494ZM26.1166 29.3023L25.6695 29.7494L28.498 32.5779L28.9451 32.1308L26.1166 29.3023ZM25.7813 30.5011C25.6759 30.0704 25.8031 29.6159 26.1166 29.3023L28.9451 32.1308C29.6199 31.456 29.8935 30.4778 29.6668 29.5508L25.7813 30.5011ZM25.5197 29.4314L25.7813 30.5011L29.6668 29.5508L29.4052 28.4811L25.5197 29.4314ZM26.2414 26.8515C25.5666 27.5263 25.293 28.5044 25.5197 29.4314L29.4052 28.4811C29.5105 28.9119 29.3834 29.3663 29.0698 29.6799L26.2414 26.8515ZM27.0486 26.0442L26.2414 26.8515L29.0698 29.6799L29.877 28.8727L27.0486 26.0442ZM28.3028 24.7901L27.0486 26.0442L29.877 28.8727L31.1312 27.6185L28.3028 24.7901ZM27.7252 26.3853V26.3853L31.7088 26.0232L31.7088 26.0232L27.7252 26.3853ZM30.3218 22.7711L28.3028 24.7901L31.1312 27.6185L33.1502 25.5995L30.3218 22.7711ZM34.1841 22.7711C33.1175 21.7045 31.3883 21.7045 30.3218 22.7711L33.1502 25.5995C32.6547 26.095 31.8512 26.095 31.3556 25.5995L34.1841 22.7711ZM37.8025 26.3895L34.1841 22.7711L31.3556 25.5995L34.974 29.2179L37.8025 26.3895ZM42.7328 25.1168C41.809 24.193 40.3112 24.193 39.3875 25.1168L42.2159 27.9452C41.5776 28.5835 40.5427 28.5835 39.9044 27.9452L42.7328 25.1168ZM43.7715 26.1555L42.7328 25.1168L39.9044 27.9452L40.9431 28.9839L43.7715 26.1555ZM43.7715 29.5009C44.6953 28.5771 44.6953 27.0793 43.7715 26.1555L40.9431 28.9839C40.3048 28.3456 40.3048 27.3107 40.9431 26.6724L43.7715 29.5009ZM38.773 34.4994L43.7715 29.5009L40.9431 26.6724L35.9446 31.671L38.773 34.4994ZM35.4277 34.4994C36.3514 35.4232 37.8492 35.4232 38.773 34.4994L35.9446 31.671C36.5829 31.0327 37.6178 31.0326 38.2561 31.671L35.4277 34.4994ZM34.3889 33.4607L35.4277 34.4994L38.2561 31.671L37.2174 30.6322L34.3889 33.4607ZM34.3889 30.1153C33.4651 31.0391 33.4651 32.5369 34.3889 33.4607L37.2174 30.6322C37.8557 31.2705 37.8557 32.3054 37.2174 32.9437L34.3889 30.1153ZM39.3875 25.1168L34.3889 30.1153L37.2174 32.9437L42.2159 27.9452L39.3875 25.1168ZM44.8242 30.5535C44.1859 31.1918 43.151 31.1918 42.5127 30.5535L45.3411 27.7251C44.4173 26.8013 42.9195 26.8013 41.9957 27.7251L44.8242 30.5535ZM39.8256 35.552L44.8242 30.5535L41.9957 27.7251L36.9972 32.7236L39.8256 35.552ZM39.8256 33.2405C40.464 33.8788 40.464 34.9137 39.8256 35.552L36.9972 32.7236C36.0734 33.6474 36.0734 35.1452 36.9972 36.0689L39.8256 33.2405ZM40.8644 34.2792L39.8256 33.2405L36.9972 36.0689L38.0359 37.1077L40.8644 34.2792ZM38.5529 34.2792C39.1912 33.6409 40.2261 33.6409 40.8644 34.2792L38.0359 37.1077C38.9597 38.0314 40.4575 38.0315 41.3813 37.1077L38.5529 34.2792ZM43.2929 29.5392L38.5529 34.2792L41.3813 37.1077L46.1213 32.3676L43.2929 29.5392ZM43.2929 31.3338C42.7974 30.8382 42.7974 30.0347 43.2929 29.5392L46.1213 32.3676C47.1879 31.3011 47.1879 29.5719 46.1213 28.5053L43.2929 31.3338ZM42.5127 30.5535L43.2929 31.3338L46.1213 28.5053L45.3411 27.7251L42.5127 30.5535ZM27.4288 21.6727L29.238 23.4819L32.0665 20.6535L30.2573 18.8442L27.4288 21.6727ZM29.7403 21.6727C29.102 22.311 28.0671 22.311 27.4288 21.6727L30.2573 18.8442C29.3335 17.9205 27.8357 17.9205 26.9119 18.8442L29.7403 21.6727ZM27.6727 23.7403L29.7403 21.6727L26.9119 18.8442L24.8442 20.9119L27.6727 23.7403ZM27.6727 21.4288C28.311 22.0671 28.311 23.102 27.6727 23.7403L24.8442 20.9119C23.9205 21.8357 23.9205 23.3335 24.8442 24.2573L27.6727 21.4288ZM29.4819 23.238L27.6727 21.4288L24.8442 24.2573L26.6535 26.0665L29.4819 23.238ZM27.1704 23.238C27.8087 22.5997 28.8436 22.5997 29.4819 23.238L26.6535 26.0665C27.5772 26.9903 29.075 26.9903 29.9988 26.0665L27.1704 23.238ZM29.238 21.1704L27.1704 23.238L29.9988 26.0665L32.0665 23.9988L29.238 21.1704ZM29.238 23.4819C28.5997 22.8436 28.5997 21.8087 29.238 21.1704L32.0665 23.9988C32.9903 23.075 32.9903 21.5772 32.0665 20.6535L29.238 23.4819ZM46.184 34.771L45.2573 33.8442L42.4288 36.6727L43.3556 37.5994L46.184 34.771ZM46.8769 36.4437C46.8769 35.8163 46.6277 35.2146 46.184 34.771L43.3556 37.5994C43.0491 37.2929 42.8769 36.8772 42.8769 36.4437L46.8769 36.4437ZM46.8769 38.5114L46.8769 36.4437H42.8769L42.8769 38.5114H46.8769ZM44.5113 40.8769C45.8178 40.8769 46.8769 39.8178 46.8769 38.5114L42.8769 38.5114C42.8769 37.6087 43.6086 36.8769 44.5114 36.8769L44.5113 40.8769ZM42.4437 40.8769L44.5114 40.8769L44.5114 36.8769L42.4437 36.8769L42.4437 40.8769ZM40.771 40.184C41.2146 40.6277 41.8163 40.8769 42.4437 40.8769L42.4437 36.8769C42.8772 36.8769 43.2929 37.0491 43.5995 37.3556L40.771 40.184ZM39.8442 39.2573L40.771 40.184L43.5995 37.3556L42.6727 36.4288L39.8442 39.2573ZM39.8442 35.9119C38.9205 36.8357 38.9205 38.3335 39.8442 39.2573L42.6727 36.4288C43.311 37.0671 43.311 38.102 42.6727 38.7403L39.8442 35.9119ZM41.9119 33.8442L39.8442 35.9119L42.6727 38.7403L44.7403 36.6727L41.9119 33.8442ZM45.2573 33.8442C44.3335 32.9205 42.8357 32.9205 41.9119 33.8442L44.7403 36.6727C44.102 37.311 43.0671 37.311 42.4288 36.6727L45.2573 33.8442Z" fill="white" mask="url(#path-3-outside-1_1_255)"/>
</g>
<path d="M62.032 40L58.108 25.852V25.312H60.34L63.652 38.02H63.724L67.504 25.312H69.556L73.444 38.02H73.516L76.756 25.312H78.988V25.852L75.1 40H71.788L68.584 29.344H68.512L65.344 40H62.032ZM81.2386 40V19.732H83.5786V28.984H83.6506C83.6986 28.864 83.8066 28.612 83.9746 28.228C84.1666 27.82 84.4546 27.4 84.8386 26.968C85.2226 26.536 85.7386 26.164 86.3866 25.852C87.0346 25.516 87.8506 25.348 88.8346 25.348C89.8426 25.348 90.6826 25.504 91.3546 25.816C92.0266 26.104 92.5666 26.512 92.9746 27.04C93.3826 27.568 93.6826 28.168 93.8746 28.84C94.0906 29.488 94.2346 30.148 94.3066 30.82C94.3786 31.492 94.4146 32.14 94.4146 32.764V40H92.1466V32.764C92.1466 31.708 92.0266 30.784 91.7866 29.992C91.5706 29.176 91.1746 28.552 90.5986 28.12C90.0466 27.664 89.2426 27.436 88.1866 27.436C87.0826 27.436 86.1946 27.7 85.5226 28.228C84.8506 28.732 84.3586 29.416 84.0466 30.28C83.7346 31.12 83.5786 32.044 83.5786 33.052V40H81.2386ZM95.9311 46.552V44.68H97.9471C98.2591 44.68 98.5351 44.632 98.7751 44.536C99.0151 44.44 99.2551 44.236 99.4951 43.924C99.7351 43.612 99.9991 43.132 100.287 42.484L101.835 39.136L96.0751 25.348H98.4871L102.987 36.688L107.775 25.348H110.223L102.375 42.808C102.015 43.624 101.691 44.272 101.403 44.752C101.115 45.256 100.815 45.64 100.503 45.904C100.191 46.168 99.8431 46.336 99.4591 46.408C99.0991 46.504 98.6551 46.552 98.1271 46.552H95.9311ZM112.067 40V25.348H114.047L114.443 28.984H114.515C114.563 28.864 114.671 28.612 114.839 28.228C115.031 27.82 115.319 27.4 115.703 26.968C116.087 26.536 116.603 26.164 117.251 25.852C117.923 25.516 118.763 25.348 119.771 25.348C120.779 25.348 121.619 25.504 122.291 25.816C122.963 26.104 123.491 26.512 123.875 27.04C124.283 27.544 124.583 28.12 124.775 28.768C124.967 29.416 125.087 30.088 125.135 30.784C125.207 31.456 125.243 32.116 125.243 32.764V40H123.011V32.764C123.011 31.708 122.891 30.784 122.651 29.992C122.435 29.176 122.039 28.552 121.463 28.12C120.887 27.664 120.071 27.436 119.015 27.436C117.935 27.436 117.059 27.7 116.387 28.228C115.715 28.732 115.223 29.416 114.911 30.28C114.599 31.12 114.443 32.044 114.443 33.052V40H112.067ZM134.758 40.36C133.198 40.36 131.89 40.036 130.834 39.388C129.802 38.74 129.022 37.852 128.494 36.724C127.99 35.596 127.738 34.312 127.738 32.872C127.738 31.408 127.99 30.112 128.494 28.984C129.022 27.832 129.802 26.932 130.834 26.284C131.89 25.636 133.198 25.312 134.758 25.312C137.038 25.312 138.778 26.008 139.978 27.4C141.178 28.768 141.778 30.592 141.778 32.872C141.778 34.288 141.526 35.56 141.022 36.688C140.518 37.816 139.75 38.716 138.718 39.388C137.686 40.036 136.366 40.36 134.758 40.36ZM134.758 38.344C136.03 38.344 137.002 38.068 137.674 37.516C138.346 36.964 138.814 36.268 139.078 35.428C139.366 34.564 139.51 33.688 139.51 32.8C139.51 31.912 139.366 31.036 139.078 30.172C138.814 29.308 138.346 28.6 137.674 28.048C137.002 27.496 136.03 27.22 134.758 27.22C133.534 27.22 132.562 27.496 131.842 28.048C131.146 28.6 130.666 29.308 130.402 30.172C130.138 31.036 130.006 31.912 130.006 32.8C130.006 33.688 130.138 34.564 130.402 35.428C130.666 36.268 131.146 36.964 131.842 37.516C132.562 38.068 133.534 38.344 134.758 38.344ZM148.259 40C147.395 40 146.783 39.76 146.423 39.28C146.063 38.8 145.883 38.14 145.883 37.3V26.752H148.115V38.128H151.535V40H148.259ZM143.579 27.076V25.348C144.155 25.348 144.611 25.324 144.947 25.276C145.307 25.204 145.571 25.06 145.739 24.844C145.907 24.604 146.015 24.22 146.063 23.692C146.111 23.164 146.135 22.456 146.135 21.568H148.115V25.348H151.499V27.076H143.579ZM154.536 40V25.348H156.696L156.804 28.984H156.876C156.924 28.816 157.032 28.54 157.2 28.156C157.392 27.748 157.656 27.328 157.992 26.896C158.352 26.464 158.82 26.104 159.396 25.816C159.972 25.504 160.704 25.348 161.592 25.348C162.504 25.348 163.248 25.528 163.824 25.888C164.4 26.224 164.844 26.668 165.156 27.22C165.468 27.772 165.708 28.36 165.876 28.984H165.948C165.996 28.792 166.116 28.504 166.308 28.12C166.5 27.736 166.788 27.328 167.172 26.896C167.556 26.464 168.048 26.104 168.648 25.816C169.272 25.504 170.028 25.348 170.916 25.348C171.852 25.348 172.62 25.54 173.22 25.924C173.844 26.284 174.336 26.776 174.696 27.4C175.056 28 175.308 28.636 175.452 29.308C175.62 29.98 175.728 30.628 175.776 31.252C175.824 31.876 175.848 32.38 175.848 32.764V40H173.58V32.764C173.58 32.356 173.556 31.864 173.508 31.288C173.484 30.688 173.364 30.1 173.148 29.524C172.956 28.924 172.632 28.432 172.176 28.048C171.72 27.64 171.072 27.436 170.232 27.436C169.32 27.436 168.564 27.7 167.964 28.228C167.388 28.756 166.968 29.452 166.704 30.316C166.44 31.156 166.308 32.068 166.308 33.052V40H164.076V32.764C164.076 32.356 164.052 31.864 164.004 31.288C163.956 30.688 163.836 30.1 163.644 29.524C163.452 28.924 163.128 28.432 162.672 28.048C162.216 27.64 161.568 27.436 160.728 27.436C159.792 27.436 159.036 27.7 158.46 28.228C157.884 28.756 157.464 29.452 157.2 30.316C156.936 31.156 156.804 32.068 156.804 33.052V40H154.536ZM183.836 40.324C182.492 40.324 181.388 40 180.524 39.352C179.66 38.68 179.012 37.78 178.58 36.652C178.172 35.524 177.968 34.24 177.968 32.8C177.968 31.312 178.184 30.004 178.616 28.876C179.048 27.748 179.696 26.86 180.56 26.212C181.448 25.54 182.54 25.204 183.836 25.204C184.604 25.204 185.264 25.312 185.816 25.528C186.392 25.72 186.884 25.984 187.292 26.32C187.7 26.656 188.036 27.016 188.3 27.4C188.588 27.76 188.804 28.108 188.948 28.444H188.984V25.348H191.36V40H189.38L189.02 37.156H188.948C188.78 37.516 188.564 37.888 188.3 38.272C188.036 38.632 187.688 38.968 187.256 39.28C186.848 39.592 186.356 39.844 185.78 40.036C185.228 40.228 184.58 40.324 183.836 40.324ZM184.736 38.272C185.744 38.272 186.548 38.056 187.148 37.624C187.772 37.168 188.228 36.532 188.516 35.716C188.804 34.9 188.948 33.94 188.948 32.836C188.948 31.66 188.792 30.664 188.48 29.848C188.192 29.032 187.736 28.42 187.112 28.012C186.488 27.58 185.696 27.364 184.736 27.364C183.68 27.364 182.816 27.604 182.144 28.084C181.496 28.564 181.028 29.212 180.74 30.028C180.452 30.844 180.308 31.768 180.308 32.8C180.308 33.856 180.452 34.804 180.74 35.644C181.052 36.46 181.532 37.108 182.18 37.588C182.852 38.044 183.704 38.272 184.736 38.272ZM196.752 40.036H194.412V19.732H196.752V40.036ZM200.604 30.748L207.84 40.036H204.996L198.912 32.368L200.604 30.748ZM196.572 36.292V33.592L204.744 25.312H207.696L196.572 36.292ZM216.145 40.36C214.537 40.36 213.205 40 212.149 39.28C211.117 38.536 210.349 37.588 209.845 36.436C209.365 35.26 209.125 34.048 209.125 32.8C209.125 31.432 209.389 30.184 209.917 29.056C210.469 27.904 211.261 26.992 212.293 26.32C213.349 25.648 214.609 25.312 216.073 25.312C217.345 25.312 218.461 25.588 219.421 26.14C220.405 26.668 221.185 27.436 221.761 28.444C222.361 29.452 222.697 30.64 222.769 32.008C222.793 32.104 222.805 32.248 222.805 32.44C222.805 32.608 222.805 32.764 222.805 32.908H211.357C211.357 34.612 211.765 35.956 212.581 36.94C213.421 37.9 214.597 38.38 216.109 38.38C217.237 38.38 218.197 38.092 218.989 37.516C219.805 36.94 220.309 36.16 220.501 35.176H222.769C222.601 36.16 222.229 37.048 221.653 37.84C221.077 38.632 220.321 39.256 219.385 39.712C218.449 40.144 217.369 40.36 216.145 40.36ZM211.429 31.648H220.429C220.429 31.264 220.345 30.832 220.177 30.352C220.033 29.848 219.793 29.368 219.457 28.912C219.121 28.432 218.677 28.036 218.125 27.724C217.573 27.412 216.877 27.256 216.037 27.256C215.293 27.256 214.645 27.388 214.093 27.652C213.541 27.892 213.073 28.228 212.689 28.66C212.329 29.068 212.041 29.536 211.825 30.064C211.633 30.592 211.501 31.12 211.429 31.648ZM227.131 40C226.531 40 226.123 39.844 225.907 39.532C225.715 39.196 225.619 38.812 225.619 38.38C225.619 37.924 225.727 37.54 225.943 37.228C226.159 36.916 226.555 36.76 227.131 36.76C227.731 36.76 228.127 36.916 228.319 37.228C228.535 37.54 228.643 37.924 228.643 38.38C228.643 38.836 228.535 39.22 228.319 39.532C228.127 39.844 227.731 40 227.131 40ZM232.489 40V25.348H234.829V40H232.489ZM233.677 23.152C233.077 23.152 232.669 22.996 232.453 22.684C232.237 22.372 232.129 22.012 232.129 21.604C232.129 21.22 232.237 20.884 232.453 20.596C232.669 20.284 233.077 20.128 233.677 20.128C234.277 20.128 234.673 20.284 234.865 20.596C235.057 20.884 235.153 21.22 235.153 21.604C235.153 22.012 235.057 22.372 234.865 22.684C234.673 22.996 234.277 23.152 233.677 23.152ZM242.091 40C241.227 40 240.615 39.76 240.255 39.28C239.895 38.8 239.715 38.14 239.715 37.3V26.752H241.947V38.128H245.367V40H242.091ZM237.411 27.076V25.348C237.987 25.348 238.443 25.324 238.779 25.276C239.139 25.204 239.403 25.06 239.571 24.844C239.739 24.604 239.847 24.22 239.895 23.692C239.943 23.164 239.967 22.456 239.967 21.568H241.947V25.348H245.331V27.076H237.411Z" fill="white"/>
<defs>
<clipPath id="clip0_1_255">
<rect x="24" y="18" width="24" height="24" rx="3.36" fill="white"/>
</clipPath>
</defs>
</svg>
