<svg width="24" height="24" viewBox="0 0 24 24" fill="none" xmlns="http://www.w3.org/2000/svg">
<g clip-path="url(#clip0_1_226)">
<mask id="path-2-outside-1_1_226" maskUnits="userSpaceOnUse" x="-5.74895" y="-3.92993" width="33.9411" height="33.9411" fill="black">
<rect fill="white" x="-5.74895" y="-3.92993" width="33.9411" height="33.9411"/>
<path fill-rule="evenodd" clip-rule="evenodd" d="M10.8375 3.08376C11.123 2.79828 11.5859 2.79828 11.8713 3.08376L12.6516 3.86402C12.7943 4.00677 12.7943 4.2382 12.6516 4.38094L11.6129 5.41966C11.4701 5.5624 11.2387 5.5624 11.096 5.41966L10.0573 4.38094C9.91451 4.2382 9.91451 4.00677 10.0573 3.86402L10.8375 3.08376ZM14.1511 5.88049C14.2939 5.73775 14.5253 5.73775 14.6681 5.88049L15.7068 6.91921C15.8495 7.06195 15.8495 7.29339 15.7068 7.43613L14.6681 8.47485C14.5253 8.61759 14.2939 8.61759 14.1511 8.47485L13.1124 7.43613C12.9697 7.29339 12.9697 7.06195 13.1124 6.91921L14.1511 5.88049ZM12.3883 9.80368C12.6737 10.0892 12.6737 10.552 12.3883 10.8375L10.8862 12.3396C10.6007 12.6251 10.1378 12.6251 9.85234 12.3396L8.8185 11.3058C8.53302 11.0203 8.07016 11.0203 7.78467 11.3058L7.56432 11.5261C7.27883 11.8116 7.27883 12.2745 7.56432 12.56L13.7673 18.763C14.0528 19.0484 14.0528 19.5113 13.7673 19.7968L13.477 20.0871C13.2964 20.2677 13.0346 20.341 12.7864 20.2803L11.7167 20.0187C11.4686 19.958 11.2068 20.0312 11.0261 20.2118L10.579 20.6589C10.2936 20.9444 9.8307 20.9444 9.54522 20.6589L3.08376 14.1975C2.79828 13.912 2.79828 13.4491 3.08376 13.1636L3.53085 12.7166C3.71148 12.5359 3.78472 12.2741 3.72403 12.026L3.46241 10.9563C3.40173 10.7081 3.47497 10.4463 3.6556 10.2657L4.46282 9.45846L5.71701 8.20427L5.71701 8.20427L7.73601 6.18527C8.0215 5.89978 8.48436 5.89978 8.76984 6.18526L12.3883 9.80368ZM16.8017 8.53101C16.9444 8.38827 17.1758 8.38827 17.3186 8.53101L18.3573 9.56973C18.5 9.71247 18.5 9.94391 18.3573 10.0866L13.3588 15.0852C13.216 15.2279 12.9846 15.2279 12.8419 15.0852L11.8031 14.0464C11.6604 13.9037 11.6604 13.6723 11.8031 13.5295L16.8017 8.53101ZM19.9269 11.1393C19.7841 10.9966 19.5527 10.9966 19.41 11.1393L14.4114 16.1378C14.2687 16.2806 14.2687 16.512 14.4114 16.6547L15.4502 17.6934C15.5929 17.8362 15.8243 17.8362 15.9671 17.6934L20.7071 12.9534C20.9926 12.6679 20.9926 12.205 20.7071 11.9196L19.9269 11.1393ZM6.65225 4.06766L4.84304 2.25845C4.7003 2.11571 4.46887 2.11571 4.32613 2.25845L2.25846 4.32612C2.11572 4.46886 2.11572 4.70029 2.25846 4.84304L4.06767 6.65224C4.21041 6.79499 4.44184 6.79499 4.58458 6.65224L6.65225 4.58458C6.79499 4.44183 6.79499 4.2104 6.65225 4.06766ZM19.843 17.2585L20.7698 18.1852C20.8384 18.2538 20.8769 18.3467 20.8769 18.4437L20.8769 20.5114C20.8769 20.7132 20.7132 20.8769 20.5114 20.8769L18.4437 20.8769C18.3468 20.8769 18.2538 20.8384 18.1852 20.7698L17.2585 19.843C17.1157 19.7003 17.1157 19.4689 17.2585 19.3261L19.3261 17.2585C19.4689 17.1157 19.7003 17.1157 19.843 17.2585Z"/>
</mask>
<path d="M10.8375 3.08376L9.4233 1.66955L10.8375 3.08376ZM12.6516 4.38094L11.2374 2.96673L12.6516 4.38094ZM11.6129 5.41966L13.0271 6.83387L11.6129 5.41966ZM10.0573 3.86402L11.4715 5.27824L10.0573 3.86402ZM14.1511 5.88049L15.5654 7.29471L14.1511 5.88049ZM15.7068 7.43613L17.121 8.85034L15.7068 7.43613ZM14.6681 8.47485L13.2538 7.06063L14.6681 8.47485ZM13.1124 6.91921L11.6982 5.505L13.1124 6.91921ZM12.7864 20.2803L12.3113 22.223L12.3113 22.223L12.7864 20.2803ZM11.7167 20.0187L11.2416 21.9614L11.2416 21.9614L11.7167 20.0187ZM11.0261 20.2118L12.4403 21.6261L12.4404 21.6261L11.0261 20.2118ZM10.579 20.6589L9.16484 19.2447L9.16484 19.2447L10.579 20.6589ZM3.08376 13.1636L4.49797 14.5779L3.08376 13.1636ZM3.53085 12.7166L4.94506 14.1308L4.94506 14.1308L3.53085 12.7166ZM3.72403 12.026L5.66677 11.5508L5.66677 11.5508L3.72403 12.026ZM3.46241 10.9563L1.51967 11.4314L1.51967 11.4314L3.46241 10.9563ZM4.46282 9.45846L3.0486 8.04424L3.0486 8.04425L4.46282 9.45846ZM5.71701 8.20427L7.13122 9.61849L7.7936 8.95611L7.70879 8.0232L5.71701 8.20427ZM5.71701 8.20427L4.30279 6.79006L3.64041 7.45244L3.72522 8.38534L5.71701 8.20427ZM16.8017 8.53101L18.2159 9.94523L16.8017 8.53101ZM18.3573 10.0866L19.7715 11.5009L18.3573 10.0866ZM13.3588 15.0852L11.9446 13.671L13.3588 15.0852ZM11.8031 13.5295L10.3889 12.1153L11.8031 13.5295ZM19.41 11.1393L20.8242 12.5535L19.41 11.1393ZM14.4114 16.1378L12.9972 14.7236L14.4114 16.1378ZM20.8769 18.4437H22.8769L22.8769 18.4437L20.8769 18.4437ZM20.8769 20.5114L22.8769 20.5114V20.5114H20.8769ZM20.5114 20.8769L20.5114 18.8769L20.5114 18.8769L20.5114 20.8769ZM18.4437 20.8769L18.4437 22.8769H18.4437L18.4437 20.8769ZM13.2856 1.66955C12.219 0.603016 10.4898 0.603016 9.4233 1.66955L12.2517 4.49798C11.7562 4.99354 10.9527 4.99354 10.4571 4.49798L13.2856 1.66955ZM14.0658 2.44981L13.2856 1.66955L10.4571 4.49798L11.2374 5.27824L14.0658 2.44981ZM14.0658 5.79515C14.9896 4.87136 14.9896 3.3736 14.0658 2.44981L11.2374 5.27824C10.5991 4.63993 10.5991 3.60503 11.2374 2.96673L14.0658 5.79515ZM13.0271 6.83387L14.0658 5.79515L11.2374 2.96673L10.1987 4.00544L13.0271 6.83387ZM9.68176 6.83387C10.6055 7.75766 12.1033 7.75766 13.0271 6.83387L10.1987 4.00544C10.837 3.36714 11.8719 3.36714 12.5102 4.00544L9.68176 6.83387ZM8.64304 5.79515L9.68176 6.83387L12.5102 4.00544L11.4715 2.96673L8.64304 5.79515ZM8.64304 2.44981C7.71925 3.3736 7.71925 4.87136 8.64304 5.79515L11.4715 2.96673C12.1098 3.60503 12.1098 4.63993 11.4715 5.27824L8.64304 2.44981ZM9.4233 1.66955L8.64304 2.44981L11.4715 5.27824L12.2517 4.49798L9.4233 1.66955ZM16.0823 4.46628C15.1585 3.54249 13.6607 3.54249 12.7369 4.46628L15.5654 7.29471C14.9271 7.93301 13.8922 7.93301 13.2538 7.29471L16.0823 4.46628ZM17.121 5.505L16.0823 4.46628L13.2538 7.29471L14.2926 8.33343L17.121 5.505ZM17.121 8.85034C18.0448 7.92655 18.0448 6.42879 17.121 5.505L14.2926 8.33343C13.6543 7.69512 13.6543 6.66022 14.2926 6.02192L17.121 8.85034ZM16.0823 9.88906L17.121 8.85034L14.2926 6.02192L13.2538 7.06063L16.0823 9.88906ZM12.7369 9.88906C13.6607 10.8129 15.1585 10.8129 16.0823 9.88906L13.2538 7.06063C13.8922 6.42233 14.9271 6.42233 15.5654 7.06063L12.7369 9.88906ZM11.6982 8.85034L12.7369 9.88906L15.5654 7.06063L14.5266 6.02192L11.6982 8.85034ZM11.6982 5.505C10.7744 6.42879 10.7744 7.92655 11.6982 8.85034L14.5266 6.02192C15.1649 6.66022 15.1649 7.69512 14.5266 8.33343L11.6982 5.505ZM12.7369 4.46628L11.6982 5.505L14.5266 8.33343L15.5654 7.29471L12.7369 4.46628ZM13.8025 12.2517C14.869 11.1852 14.869 9.456 13.8025 8.38947L10.974 11.2179C10.4785 10.7223 10.4785 9.91886 10.974 9.4233L13.8025 12.2517ZM12.3004 13.7538L13.8025 12.2517L10.974 9.4233L9.47196 10.9254L12.3004 13.7538ZM8.43812 13.7538C9.50466 14.8204 11.2339 14.8203 12.3004 13.7538L9.47196 10.9254C9.96752 10.4298 10.771 10.4298 11.2665 10.9254L8.43812 13.7538ZM7.40429 12.72L8.43812 13.7538L11.2665 10.9254L10.2327 9.89156L7.40429 12.72ZM9.19889 12.72C8.70332 13.2156 7.89985 13.2155 7.40429 12.72L10.2327 9.89156C9.16619 8.82503 7.43699 8.82502 6.37046 9.89156L9.19889 12.72ZM8.97853 12.9403L9.19889 12.72L6.37046 9.89156L6.1501 10.1119L8.97853 12.9403ZM8.97853 11.1457C9.47409 11.6413 9.4741 12.4448 8.97853 12.9403L6.1501 10.1119C5.08357 11.1784 5.08357 12.9076 6.1501 13.9742L8.97853 11.1457ZM15.1815 17.3487L8.97853 11.1457L6.1501 13.9742L12.3531 20.1772L15.1815 17.3487ZM15.1815 21.211C16.2481 20.1445 16.2481 18.4153 15.1815 17.3487L12.3531 20.1772C11.8575 19.6816 11.8575 18.8781 12.3531 18.3826L15.1815 21.211ZM14.8912 21.5013L15.1815 21.211L12.3531 18.3826L12.0628 18.6729L14.8912 21.5013ZM12.3113 22.223C13.2383 22.4497 14.2164 22.1761 14.8912 21.5013L12.0628 18.6729C12.3763 18.3593 12.8308 18.2322 13.2616 18.3375L12.3113 22.223ZM11.2416 21.9614L12.3113 22.223L13.2616 18.3375L12.1919 18.0759L11.2416 21.9614ZM12.4404 21.6261C12.1268 21.9396 11.6723 22.0667 11.2416 21.9614L12.1919 18.0759C11.2649 17.8492 10.2867 18.1228 9.61192 18.7976L12.4404 21.6261ZM11.9933 22.0731L12.4403 21.6261L9.61193 18.7976L9.16484 19.2447L11.9933 22.0731ZM8.131 22.0731C9.19754 23.1397 10.9267 23.1397 11.9933 22.0731L9.16484 19.2447C9.6604 18.7491 10.4639 18.7491 10.9594 19.2447L8.131 22.0731ZM1.66955 15.6117L8.131 22.0731L10.9594 19.2447L4.49798 12.7833L1.66955 15.6117ZM1.66955 11.7494C0.603015 12.816 0.603013 14.5451 1.66955 15.6117L4.49798 12.7833C4.99354 13.2788 4.99354 14.0823 4.49797 14.5779L1.66955 11.7494ZM2.11664 11.3023L1.66955 11.7494L4.49797 14.5779L4.94506 14.1308L2.11664 11.3023ZM1.78129 12.5011C1.67595 12.0704 1.80308 11.6159 2.11663 11.3023L4.94506 14.1308C5.61988 13.456 5.89349 12.4778 5.66677 11.5508L1.78129 12.5011ZM1.51967 11.4314L1.78129 12.5011L5.66677 11.5508L5.40515 10.4811L1.51967 11.4314ZM2.24138 8.85146C1.56657 9.52628 1.29295 10.5044 1.51967 11.4314L5.40515 10.4811C5.5105 10.9119 5.38336 11.3663 5.06981 11.6799L2.24138 8.85146ZM3.0486 8.04425L2.24138 8.85146L5.06981 11.6799L5.87703 10.8727L3.0486 8.04425ZM4.30279 6.79006L3.0486 8.04424L5.87703 10.8727L7.13122 9.61849L4.30279 6.79006ZM3.72522 8.38534V8.38535L7.70879 8.0232L7.70879 8.0232L3.72522 8.38534ZM6.3218 4.77105L4.30279 6.79006L7.13122 9.61848L9.15022 7.59948L6.3218 4.77105ZM10.1841 4.77105C9.11752 3.70452 7.38833 3.70452 6.3218 4.77105L9.15022 7.59948C8.65466 8.09504 7.8512 8.09504 7.35563 7.59948L10.1841 4.77105ZM13.8025 8.38947L10.1841 4.77105L7.35563 7.59948L10.974 11.2179L13.8025 8.38947ZM18.7328 7.1168C17.809 6.19301 16.3112 6.19301 15.3875 7.1168L18.2159 9.94523C17.5776 10.5835 16.5427 10.5835 15.9044 9.94523L18.7328 7.1168ZM19.7715 8.15552L18.7328 7.1168L15.9044 9.94523L16.9431 10.9839L19.7715 8.15552ZM19.7715 11.5009C20.6953 10.5771 20.6953 9.07931 19.7715 8.15552L16.9431 10.9839C16.3048 10.3456 16.3048 9.31074 16.9431 8.67244L19.7715 11.5009ZM14.773 16.4994L19.7715 11.5009L16.9431 8.67244L11.9446 13.671L14.773 16.4994ZM11.4277 16.4994C12.3514 17.4232 13.8492 17.4232 14.773 16.4994L11.9446 13.671C12.5829 13.0326 13.6178 13.0326 14.2561 13.671L11.4277 16.4994ZM10.3889 15.4607L11.4277 16.4994L14.2561 13.671L13.2174 12.6322L10.3889 15.4607ZM10.3889 12.1153C9.46514 13.0391 9.46515 14.5369 10.3889 15.4607L13.2174 12.6322C13.8557 13.2705 13.8557 14.3054 13.2174 14.9437L10.3889 12.1153ZM15.3875 7.1168L10.3889 12.1153L13.2174 14.9437L18.2159 9.94523L15.3875 7.1168ZM20.8242 12.5535C20.1859 13.1918 19.151 13.1918 18.5127 12.5535L21.3411 9.72508C20.4173 8.80129 18.9195 8.80129 17.9957 9.72508L20.8242 12.5535ZM15.8256 17.552L20.8242 12.5535L17.9957 9.72508L12.9972 14.7236L15.8256 17.552ZM15.8256 15.2405C16.464 15.8788 16.464 16.9137 15.8256 17.552L12.9972 14.7236C12.0734 15.6474 12.0734 17.1451 12.9972 18.0689L15.8256 15.2405ZM16.8644 16.2792L15.8256 15.2405L12.9972 18.0689L14.0359 19.1077L16.8644 16.2792ZM14.5529 16.2792C15.1912 15.6409 16.2261 15.6409 16.8644 16.2792L14.0359 19.1077C14.9597 20.0314 16.4575 20.0315 17.3813 19.1077L14.5529 16.2792ZM19.2929 11.5392L14.5529 16.2792L17.3813 19.1077L22.1213 14.3676L19.2929 11.5392ZM19.2929 13.3338C18.7974 12.8382 18.7974 12.0347 19.2929 11.5392L22.1213 14.3676C23.1879 13.3011 23.1879 11.5719 22.1213 10.5053L19.2929 13.3338ZM18.5127 12.5535L19.2929 13.3338L22.1213 10.5053L21.3411 9.72508L18.5127 12.5535ZM3.42883 3.67267L5.23804 5.48187L8.06646 2.65345L6.25726 0.844239L3.42883 3.67267ZM5.74034 3.67267C5.10203 4.31097 4.06714 4.31097 3.42883 3.67267L6.25726 0.844239C5.33347 -0.0795518 3.8357 -0.0795515 2.91191 0.844239L5.74034 3.67267ZM3.67267 5.74033L5.74034 3.67267L2.91191 0.844239L0.844247 2.91191L3.67267 5.74033ZM3.67267 3.42882C4.31098 4.06713 4.31098 5.10203 3.67267 5.74033L0.844247 2.91191C-0.0795446 3.8357 -0.0795432 5.33346 0.844247 6.25725L3.67267 3.42882ZM5.48188 5.23803L3.67267 3.42882L0.844247 6.25725L2.65345 8.06646L5.48188 5.23803ZM3.17037 5.23803C3.80868 4.59972 4.84358 4.59972 5.48188 5.23803L2.65345 8.06646C3.57725 8.99025 5.07501 8.99025 5.9988 8.06646L3.17037 5.23803ZM5.23804 3.17036L3.17037 5.23803L5.9988 8.06646L8.06646 5.99879L5.23804 3.17036ZM5.23804 5.48187C4.59973 4.84357 4.59973 3.80867 5.23804 3.17036L8.06646 5.99879C8.99026 5.075 8.99025 3.57724 8.06646 2.65345L5.23804 5.48187ZM22.184 16.771L21.2573 15.8442L18.4288 18.6727L19.3556 19.5994L22.184 16.771ZM22.8769 18.4437C22.8769 17.8163 22.6277 17.2146 22.184 16.771L19.3556 19.5994C19.0491 19.2929 18.8769 18.8772 18.8769 18.4437L22.8769 18.4437ZM22.8769 20.5114L22.8769 18.4437H18.8769L18.8769 20.5114H22.8769ZM20.5113 22.8769C21.8178 22.8769 22.8769 21.8178 22.8769 20.5114L18.8769 20.5114C18.8769 19.6087 19.6086 18.8769 20.5114 18.8769L20.5113 22.8769ZM18.4437 22.8769L20.5114 22.8769L20.5114 18.8769L18.4437 18.8769L18.4437 22.8769ZM16.771 22.184C17.2146 22.6276 17.8163 22.8769 18.4437 22.8769L18.4437 18.8769C18.8772 18.8769 19.2929 19.0491 19.5995 19.3556L16.771 22.184ZM15.8442 21.2572L16.771 22.184L19.5995 19.3556L18.6727 18.4288L15.8442 21.2572ZM15.8442 17.9119C14.9205 18.8357 14.9205 20.3335 15.8442 21.2572L18.6727 18.4288C19.311 19.0671 19.311 20.102 18.6727 20.7403L15.8442 17.9119ZM17.9119 15.8442L15.8442 17.9119L18.6727 20.7403L20.7403 18.6727L17.9119 15.8442ZM21.2573 15.8442C20.3335 14.9204 18.8357 14.9205 17.9119 15.8442L20.7403 18.6727C20.102 19.311 19.0671 19.311 18.4288 18.6727L21.2573 15.8442Z" fill="black" mask="url(#path-2-outside-1_1_226)"/>
</g>
<defs>
<clipPath id="clip0_1_226">
<rect width="24" height="24" rx="3.36" fill="white"/>
</clipPath>
</defs>
</svg>
